<svg xmlns="http://www.w3.org/2000/svg" width="24" height="25" viewBox="0 0 24 25" fill="none">
  <path fill-rule="evenodd" clip-rule="evenodd" d="M10.9094 12.3058C10.4865 11.9843 9.96853 11.7915 9.40581 11.7915C7.99721 11.7915 6.85121 12.9852 6.85121 14.4525C6.85121 15.9198 7.99721 17.1136 9.40581 17.1136C10.815 17.1136 11.9616 15.9198 11.9616 14.4525C11.9616 13.867 11.7765 13.3268 11.4673 12.8863L13.3478 10.928C14.1302 11.8759 14.6052 13.1069 14.6052 14.4525C14.6052 17.4388 12.2726 19.8679 9.40642 19.8679C6.5396 19.8679 4.20705 17.4388 4.20705 14.4525C4.20705 11.4675 6.5396 9.0384 9.40642 9.0384C10.6976 9.0384 11.8799 9.53191 12.79 10.3469L10.9094 12.3058ZM9.12688 14.7431C9.20432 14.8237 9.30537 14.8635 9.40581 14.8635C9.50686 14.8635 9.60851 14.8237 9.68536 14.7431L10.9009 13.4775C11.0716 13.7605 11.172 14.0939 11.172 14.4525C11.172 15.4666 10.3806 16.2917 9.40581 16.2917C8.43286 16.2917 7.64022 15.4666 7.64022 14.4525C7.64022 13.439 8.43286 12.614 9.40581 12.614C9.7507 12.614 10.0708 12.7186 10.3425 12.8963L9.12688 14.162C8.97258 14.3227 8.97258 14.583 9.12688 14.7431ZM9.40581 5.47731C11.6409 5.47731 13.6782 6.36726 15.2109 7.82448L13.3491 9.76448C12.295 8.80204 10.9155 8.21588 9.40642 8.21588C6.10455 8.21588 3.41865 11.0137 3.41865 14.4525C3.41865 17.892 6.10455 20.6898 9.40642 20.6898C12.7083 20.6898 15.3942 17.892 15.3942 14.4525C15.3942 12.8806 14.8315 11.4436 13.9075 10.3456L15.7693 8.40623C17.1683 10.0027 18.0232 12.1255 18.0232 14.4525C18.0232 19.4021 14.158 23.429 9.40581 23.429C4.6548 23.429 0.789011 19.4021 0.789011 14.4525C0.789011 9.50291 4.6548 5.47731 9.40581 5.47731ZM9.40581 24.2515C14.5925 24.2515 18.8122 19.8553 18.8122 14.4525C18.8122 11.8992 17.8689 9.57162 16.3272 7.82511L18.097 5.98027C18.16 6.07292 18.258 6.1391 18.3748 6.15234L22.0802 6.57652C22.0947 6.57841 22.1093 6.57904 22.1238 6.57904C22.3228 6.57904 22.4935 6.42336 22.5159 6.21348C22.5395 5.98657 22.3827 5.78425 22.1667 5.75904L18.6924 5.3626L19.7102 4.29994C19.7271 4.30498 19.7434 4.31003 19.761 4.31255L23.4664 4.7361C23.481 4.73736 23.4955 4.73862 23.51 4.73862C23.7085 4.73862 23.8797 4.58231 23.9015 4.37242C23.9251 4.14615 23.769 3.9432 23.5524 3.91862L20.4211 3.56062L22.3235 1.57965C22.4771 1.4183 22.4771 1.15862 22.3235 0.997268C22.1692 0.837177 21.9193 0.837177 21.765 0.997268L19.8142 3.02993L18.7856 0.26236C18.7069 0.0505855 18.4782 -0.0540412 18.2755 0.0278953C18.0716 0.109832 17.9706 0.348078 18.0498 0.559853L19.1916 3.62995C19.1958 3.6413 19.2037 3.65012 19.2079 3.66084L18.3687 4.53504L17.3377 1.67419C17.2608 1.46179 17.0333 1.35464 16.8294 1.43468C16.6255 1.5141 16.522 1.75045 16.5983 1.96349L17.74 5.13002C17.7443 5.14452 17.754 5.15586 17.7606 5.1691L15.7687 7.24336C14.0927 5.6374 11.8582 4.65416 9.40581 4.65416C4.21976 4.65416 0 9.05037 0 14.4525C0 19.8553 4.21976 24.2515 9.40581 24.2515Z" fill="#4F4DA2"/>
</svg>