<svg xmlns="http://www.w3.org/2000/svg" width="22" height="25" viewBox="0 0 22 25" fill="none">
<path d="M11.0003 25C10.1059 25 9.36052 24.2236 9.36052 23.2919C9.36052 22.5155 9.88226 21.8168 10.6276 21.6615V21.5062V20.0311C8.24251 19.8758 6.15555 18.5559 4.88847 16.6149L3.54686 17.3913C3.62139 17.7019 3.62139 18.0124 3.54686 18.4006C3.39779 18.8665 3.17419 19.177 2.80151 19.4099C2.05617 19.8758 1.01269 19.5652 0.56549 18.7888C0.341887 18.4006 0.267353 17.9348 0.416421 17.4689C0.56549 17.0031 0.789092 16.6925 1.16176 16.4596C1.53443 16.2267 1.98164 16.1491 2.42884 16.3043C2.72698 16.382 3.02512 16.5373 3.24872 16.7702L3.32325 16.6925L4.5158 15.9938C3.99406 14.9845 3.69592 13.8199 3.69592 12.5776C3.69592 11.3354 3.99406 10.1708 4.5158 9.16149L3.17419 8.38509C2.65245 8.92857 1.83257 9.08385 1.16176 8.69565C0.416421 8.22981 0.118285 7.2205 0.56549 6.36646C1.01269 5.59006 1.98164 5.2795 2.80151 5.74534C3.17419 5.97826 3.47232 6.36646 3.54686 6.75466C3.62139 7.06522 3.62139 7.37578 3.54686 7.68634L3.69592 7.76398L4.88847 8.46273C6.15555 6.4441 8.24251 5.12422 10.6276 5.04658V3.33851C9.88226 3.18323 9.36052 2.48447 9.36052 1.70807C9.36052 0.776398 10.1059 0 11.0003 0C11.8947 0 12.64 0.776398 12.64 1.70807C12.64 2.48447 12.1183 3.18323 11.3729 3.33851V3.49379V4.96894C13.758 5.12422 15.845 6.4441 17.1121 8.38509L18.4537 7.6087C18.3792 7.29814 18.3792 6.98758 18.4537 6.67702C18.6028 6.21118 18.8264 5.90062 19.199 5.6677C19.9444 5.20186 20.9879 5.51242 21.4351 6.28882C21.6587 6.67702 21.7332 7.14286 21.5841 7.6087C21.4351 8.07453 21.2115 8.38509 20.8388 8.61801C20.168 9.00621 19.3481 8.85093 18.8264 8.30745L18.6773 8.38509L17.4847 9.08385C18.0065 10.0932 18.3046 11.2578 18.3046 12.5C18.3046 13.7422 18.0065 14.9068 17.4847 15.9161L18.8264 16.6925C19.3481 16.1491 20.168 15.9938 20.8388 16.382C21.2115 16.6149 21.5096 17.0031 21.5841 17.3913C21.6587 17.7795 21.6587 18.323 21.4351 18.7112C20.9879 19.4876 20.0189 19.7981 19.199 19.3323C18.8264 19.0994 18.5282 18.7112 18.4537 18.323C18.3792 18.0124 18.3792 17.7019 18.4537 17.3913H18.3792L18.2301 17.3137L17.0375 16.6149C15.7705 18.6335 13.6835 19.9534 11.2984 20.0311V21.6615C12.0438 21.8168 12.5655 22.5155 12.5655 23.2919C12.5655 24.2236 11.8947 25 11.0003 25ZM10.0313 23.2919C10.0313 23.8354 10.4785 24.3012 11.0003 24.3012C11.522 24.3012 11.9692 23.8354 11.9692 23.2919V23.2143C11.9692 22.6708 11.522 22.2826 11.0003 22.2826C10.4785 22.2826 10.0313 22.7484 10.0313 23.2919ZM5.33568 16.0714C6.45369 17.9348 8.39158 19.2547 10.7021 19.3323H11.2984C13.5344 19.177 15.3978 17.9348 16.5158 16.1491L16.7394 15.7609C17.2611 14.7516 17.5593 13.6646 17.5593 12.5C17.5593 11.3354 17.2611 10.2484 16.8139 9.23913L16.5903 8.77329C15.4723 6.98758 13.5344 5.74534 11.2984 5.59006H10.7021C8.54064 5.6677 6.60276 6.90994 5.48474 8.77329L5.18661 9.23913C4.66487 10.1708 4.36673 11.3354 4.36673 12.5C4.36673 13.6646 4.66487 14.8292 5.18661 15.7609L5.33568 16.0714ZM19.4226 18.7112C19.4226 18.7112 19.4972 18.7888 19.4226 18.7112C19.9444 19.0217 20.5406 18.8665 20.7642 18.4006C20.9133 18.1677 20.9133 17.9348 20.8388 17.6242C20.7642 17.3913 20.6152 17.1584 20.3916 17.0031C20.3916 17.0031 20.3916 17.0031 20.317 17.0031C19.8698 16.7702 19.3481 16.9255 19.05 17.3913C18.9009 17.8571 19.05 18.4006 19.4226 18.7112ZM1.53443 17.0031C1.2363 17.1584 1.08723 17.3913 1.01269 17.6242C0.938161 17.8571 1.01269 18.1677 1.08723 18.4006C1.38537 18.8665 1.9071 19.0217 2.42884 18.7888C2.42884 18.7888 2.42884 18.7888 2.50338 18.7888C2.95058 18.4783 3.02512 17.9348 2.80151 17.4689C2.57791 16.9255 1.98164 16.7702 1.53443 17.0031ZM19.1245 7.6087C19.3481 8.07453 19.9444 8.22981 20.3916 7.99689C20.3916 7.99689 20.3916 7.99689 20.4661 7.99689C20.9133 7.68634 21.0624 7.14286 20.8388 6.59938C20.5406 6.13354 20.0189 5.97826 19.4972 6.21118C19.2736 6.36646 19.1245 6.59938 19.05 6.8323C18.9754 7.06522 18.9754 7.37578 19.1245 7.6087ZM1.53443 7.99689C1.98164 8.22981 2.57791 8.07453 2.80151 7.6087C3.09965 7.06522 2.95058 6.52174 2.42884 6.21118C1.98164 5.90062 1.38537 6.13354 1.16176 6.59938C0.863626 7.06522 1.01269 7.68634 1.53443 7.99689ZM11.0003 2.63975C11.522 2.63975 11.8947 2.25155 11.9692 1.70807V1.63043C11.9692 1.08696 11.522 0.621118 11.0003 0.621118C10.404 0.698758 10.0313 1.08696 10.0313 1.70807V1.78571C10.0313 2.25155 10.4785 2.63975 11.0003 2.63975ZM14.727 15.9938H7.19903V15.0621C7.19903 13.8975 8.09344 12.8882 9.28599 12.8882H9.88226C9.28599 12.5 8.91332 11.8012 8.91332 11.1025C8.91332 9.93789 9.80773 8.92857 11.0003 8.92857C12.1183 8.92857 13.0872 9.86025 13.0872 11.1025C13.0872 11.8789 12.7146 12.5 12.1183 12.8882H12.7146C13.8326 12.8882 14.8015 13.8199 14.8015 15.0621V15.9938H14.727ZM7.86984 15.295H14.1307V15.0621C14.1307 14.2857 13.5344 13.587 12.7146 13.587H9.28599C8.54064 13.587 7.86984 14.2081 7.86984 15.0621V15.295ZM11.0003 9.62733C10.2549 9.62733 9.58412 10.2484 9.58412 11.1025C9.58412 11.9565 10.1804 12.5776 11.0003 12.5776C11.8201 12.5776 12.4164 11.9565 12.4164 11.1025C12.4164 10.2484 11.7456 9.62733 11.0003 9.62733Z" fill="#4F4DA2"/>
</svg>