<svg xmlns="http://www.w3.org/2000/svg" width="20" height="25" viewBox="0 0 20 25" fill="none">
  <path d="M19.0346 8.45259C18.9919 8.18426 18.9064 8.00537 18.821 7.78175C18.6501 7.51342 18.4365 7.2898 18.3084 7.06619C18.1375 6.8873 18.0094 6.66369 17.9667 6.52952C17.9239 6.44007 17.9239 6.3059 17.9239 6.12701C17.9239 5.9034 17.9239 5.67979 17.9239 5.41145C17.9239 5.09839 17.8812 4.74061 17.7104 4.38283C17.5822 4.15921 17.4113 4.02504 17.2405 3.89088C16.9842 3.71199 16.7279 3.62254 16.4716 3.48837C16.258 3.39893 16.0444 3.26476 15.959 3.17531C15.8308 3.04114 15.7027 2.72809 15.5318 2.3703C15.4464 2.19141 15.3609 2.01252 15.2755 1.83363C15.1474 1.65474 15.0192 1.47585 14.8056 1.34168C14.5066 1.16279 14.1649 1.16279 13.8231 1.16279C13.5668 1.16279 13.3533 1.16279 13.1397 1.16279C12.9688 1.16279 12.8407 1.16279 12.7552 1.11807C12.5844 1.07335 12.3281 0.849732 12.0718 0.581395C11.9436 0.447227 11.7727 0.313059 11.6019 0.223614C11.431 0.0894454 11.2174 0 10.9611 0C10.9184 0 10.8757 0 10.833 0C10.6194 0 10.4058 0.0447227 10.2349 0.134168C9.93593 0.223614 9.72235 0.357782 9.50876 0.49195C9.29518 0.626118 9.12431 0.670841 8.99616 0.715564H8.91073C8.73986 0.715564 8.52628 0.670841 8.26998 0.581395C8.01368 0.49195 7.71466 0.402505 7.37293 0.402505C7.24478 0.402505 7.07392 0.402504 6.90305 0.49195C6.68947 0.581395 6.47588 0.715564 6.34773 0.849732C6.13415 1.07335 5.96328 1.34168 5.83513 1.5653C5.66427 1.78891 5.53612 1.9678 5.40797 2.01252C5.32253 2.05725 5.2371 2.10197 5.10895 2.10197C4.89537 2.14669 4.63907 2.19141 4.34005 2.28086C4.04104 2.3703 3.74202 2.45975 3.48572 2.72809C3.31485 2.90698 3.22942 3.13059 3.14399 3.30948C3.05855 3.62254 3.01584 3.9356 2.97312 4.20394C2.9304 4.47227 2.88769 4.69589 2.80225 4.78533C2.71682 4.96422 2.46052 5.14311 2.1615 5.36673C2.03335 5.5009 1.86249 5.59034 1.69162 5.76923C1.56347 5.9034 1.3926 6.12701 1.34989 6.35063C1.30717 6.52952 1.26445 6.66369 1.26445 6.84258C1.26445 7.20036 1.34989 7.51342 1.43532 7.78175C1.52075 8.05009 1.56347 8.31843 1.56347 8.45259V8.54204C1.56347 8.72093 1.43532 8.98927 1.26445 9.30233C1.17902 9.48122 1.09359 9.61539 1.00815 9.839C0.922722 10.0179 0.880005 10.2415 0.880005 10.4651C0.880005 10.5098 0.880005 10.5546 0.880005 10.5993C0.922722 10.8676 1.00815 11.0465 1.09359 11.2701C1.26445 11.5385 1.47804 11.7621 1.60619 11.9857C1.77705 12.1646 1.9052 12.3882 1.94792 12.5224C1.99064 12.6118 1.99064 12.746 1.99064 12.9249C1.99064 13.1485 1.99064 13.3721 1.99064 13.6404C1.99064 13.9535 2.03335 14.3113 2.20422 14.6691C2.33237 14.8927 2.50324 15.0268 2.6741 15.161C2.9304 15.3399 3.1867 15.4293 3.443 15.5635C3.65659 15.653 3.87017 15.7871 3.9556 15.8766C4.08375 16.0107 4.2119 16.3238 4.38277 16.6816C4.4682 16.8605 4.55363 17.0394 4.63907 17.2182C4.76722 17.3971 4.89537 17.576 5.10895 17.7102C5.15167 17.7549 5.2371 17.7549 5.27982 17.7996L3.48572 23.39L6.30502 22.4508L8.01368 25L9.97865 18.873C9.97865 18.873 10.0214 18.873 10.0214 18.8283L11.9863 24.9553L13.695 22.4061L16.5143 23.3453L14.5066 17.0841L14.5493 17.0394C14.6348 16.9946 14.7202 16.9499 14.8911 16.9052C15.1046 16.8605 15.3609 16.8157 15.66 16.7263C15.959 16.6369 16.258 16.5474 16.5143 16.2791C16.6852 16.1002 16.7706 15.8766 16.856 15.6977C16.9415 15.3846 16.9842 15.0716 17.0269 14.8032C17.0696 14.5349 17.1123 14.3113 17.1978 14.2218C17.2832 14.0429 17.5395 13.864 17.8385 13.6404C17.9667 13.5063 18.1375 13.4168 18.3084 13.2379C18.4365 13.1038 18.6074 12.8801 18.6501 12.6565C18.6928 12.4776 18.7356 12.3435 18.7356 12.1646C18.7356 11.8068 18.6501 11.4937 18.5647 11.2254C18.4793 10.9571 18.4365 10.6887 18.4365 10.5546V10.4651C18.4365 10.2862 18.5647 10.0179 18.7356 9.70483C18.821 9.52594 18.9064 9.39177 18.9919 9.16816C19.0773 8.98927 19.12 8.76565 19.12 8.54204C19.0773 8.54204 19.0346 8.49732 19.0346 8.45259ZM7.67195 22.9875L6.60403 21.3775L4.80993 21.9589L6.13415 17.8891C6.34773 17.8891 6.60403 17.8891 6.7749 17.8891C6.94577 17.8891 7.07392 17.8891 7.15935 17.9338C7.33022 17.9785 7.58651 18.2021 7.84281 18.4705C7.97096 18.6047 8.14183 18.7388 8.3127 18.8283C8.48356 18.9624 8.69715 19.0519 8.95345 19.0519L7.67195 22.9875ZM13.2678 21.3775L12.1999 22.9875L10.7475 18.4258C10.7903 18.4258 10.8757 18.381 10.9184 18.381H11.0038C11.1747 18.381 11.3883 18.4258 11.6446 18.5152C11.9009 18.6047 12.1999 18.6941 12.5416 18.6941C12.6698 18.6941 12.8407 18.6941 13.0115 18.6047C13.2251 18.5152 13.4387 18.381 13.5668 18.2469C13.6523 18.1574 13.7377 18.0233 13.8231 17.9338L15.1046 22.0036L13.2678 21.3775ZM18.1375 8.89982C18.0521 9.07871 17.9667 9.30233 17.8385 9.57066C17.7104 9.839 17.5822 10.1073 17.5395 10.4204C17.5395 10.4651 17.5395 10.5546 17.5395 10.5993C17.5395 10.9571 17.6249 11.2701 17.7104 11.5385C17.7958 11.8068 17.8385 12.0751 17.8385 12.2093C17.8385 12.2987 17.8385 12.3435 17.7958 12.3882C17.7531 12.4776 17.7104 12.5224 17.6249 12.6118C17.4968 12.746 17.2832 12.9249 17.0696 13.059C16.856 13.2379 16.5997 13.4168 16.4289 13.7299C16.3007 13.9088 16.258 14.1324 16.2153 14.3113C16.1298 14.6243 16.1298 14.8927 16.0444 15.1163C16.0017 15.3399 15.9163 15.5188 15.8308 15.6082C15.7881 15.653 15.7027 15.6977 15.5745 15.7424C15.4037 15.8318 15.1474 15.8318 14.8911 15.9213C14.6348 15.966 14.3357 16.0555 14.0367 16.2343C13.6523 16.5027 13.4387 16.8605 13.2251 17.1288C13.1397 17.263 13.0115 17.3971 12.9261 17.4866C12.8407 17.576 12.7552 17.6208 12.7125 17.6655C12.6698 17.6655 12.6271 17.7102 12.5416 17.7102C12.3708 17.7102 12.1572 17.6655 11.9009 17.576C11.6446 17.4866 11.3456 17.3971 11.0038 17.3971C10.9611 17.3971 10.8757 17.3971 10.833 17.3971C10.4058 17.4419 10.0641 17.6655 9.76506 17.8444C9.63691 17.9338 9.46605 17.9785 9.38061 18.068C9.25246 18.1127 9.16703 18.1574 9.0816 18.1574H9.03888C8.95345 18.1574 8.86801 18.1127 8.78258 18.068C8.61171 17.9785 8.44085 17.7996 8.22726 17.576C8.01368 17.3971 7.75738 17.1735 7.45837 17.0841C7.20207 16.9946 6.98848 16.9946 6.7749 16.9946C6.5186 16.9946 6.2623 17.0394 6.09143 16.9946C5.83513 16.9946 5.66427 16.9499 5.57883 16.9052C5.53612 16.8605 5.45068 16.8157 5.40797 16.6816C5.32253 16.5027 5.19438 16.2791 5.10895 16.0107C4.9808 15.7424 4.85265 15.4293 4.63907 15.2057C4.29733 14.8927 3.91289 14.7138 3.61387 14.5796C3.443 14.4902 3.31485 14.4454 3.22942 14.356C3.14399 14.2665 3.05855 14.2218 3.01584 14.1771C2.97312 14.0877 2.9304 13.9088 2.9304 13.6404C2.9304 13.4168 2.9304 13.1932 2.9304 12.9249C2.9304 12.7013 2.9304 12.4776 2.84497 12.2093C2.6741 11.7621 2.4178 11.449 2.1615 11.1807C2.03335 11.0465 1.94792 10.9123 1.9052 10.8229C1.81977 10.6887 1.81977 10.5993 1.81977 10.5546V10.5098C1.81977 10.4204 1.81977 10.3309 1.9052 10.1968C1.99064 10.0179 2.07607 9.79428 2.20422 9.52594C2.33237 9.2576 2.46052 8.98927 2.50324 8.67621C2.50324 8.63148 2.50324 8.54204 2.50324 8.49732C2.50324 8.13953 2.4178 7.82648 2.33237 7.55814C2.24694 7.2898 2.20422 7.02147 2.20422 6.8873C2.20422 6.79785 2.20422 6.75313 2.24694 6.70841C2.28965 6.61896 2.33237 6.57424 2.4178 6.48479C2.54595 6.35063 2.75954 6.17174 2.97312 6.03757C3.1867 5.85868 3.443 5.67979 3.61387 5.36673C3.74202 5.18784 3.78474 4.96422 3.82745 4.78533C3.91289 4.47227 3.91289 4.20394 3.99832 3.98032C4.04104 3.75671 4.12647 3.57782 4.2119 3.48837C4.25462 3.44365 4.34005 3.39893 4.4682 3.3542C4.63907 3.26476 4.89537 3.26476 5.15167 3.17531C5.40797 3.13059 5.70698 3.04115 6.006 2.86225C6.39045 2.59392 6.60403 2.23614 6.81762 1.9678C6.90305 1.83363 7.0312 1.69946 7.11663 1.61002C7.20207 1.52057 7.2875 1.47585 7.33022 1.43113C7.37293 1.43113 7.41565 1.3864 7.50108 1.3864C7.67195 1.3864 7.88553 1.43113 8.14183 1.52057C8.39813 1.61002 8.69715 1.69946 9.03888 1.69946C9.0816 1.69946 9.16703 1.69946 9.20975 1.69946C9.63691 1.65474 9.97865 1.43113 10.2777 1.25224C10.4058 1.16279 10.5767 1.11807 10.6621 1.02862C10.7903 0.9839 10.8757 0.939177 10.9611 0.939177H11.0038C11.0893 0.939177 11.1747 0.9839 11.2601 1.02862C11.431 1.11807 11.6019 1.29696 11.8155 1.52057C12.029 1.69946 12.2853 1.92308 12.5844 2.01252C12.7125 2.05725 12.9261 2.05725 13.1397 2.05725C13.396 2.05725 13.6523 2.01252 13.8231 2.05725C14.0794 2.05725 14.2503 2.10197 14.3357 2.14669C14.3785 2.19141 14.4639 2.23614 14.5066 2.3703C14.592 2.5492 14.7202 2.77281 14.8056 3.04115C14.9338 3.30948 15.0619 3.62254 15.2755 3.84615C15.6172 4.15921 16.0017 4.3381 16.3007 4.47227C16.4716 4.56172 16.5997 4.60644 16.6852 4.69589C16.7706 4.78533 16.856 4.83005 16.8987 4.87478C16.9415 4.96422 16.9842 5.14311 16.9842 5.41145C16.9842 5.63506 16.9842 5.85868 16.9842 6.12701C16.9842 6.35063 16.9842 6.57424 17.0696 6.84258C17.2405 7.2898 17.4968 7.60286 17.7531 7.8712C17.8812 8.00537 17.9667 8.13953 18.0094 8.22898C18.0948 8.36315 18.0948 8.45259 18.0948 8.49732V8.54204C18.223 8.67621 18.1802 8.76565 18.1375 8.89982Z" fill="#4F4DA2"/>
</svg>