<svg xmlns="http://www.w3.org/2000/svg" width="22" height="22" viewBox="0 0 22 22" fill="none">
  <path d="M21.001 12.5862C20.2725 12.3719 19.4582 12.3719 18.6868 12.629L16.0296 13.4862C15.9868 13.3147 15.8582 13.1004 15.6439 12.8862C15.2153 12.4147 14.5296 12.1147 13.8439 12.1147H11.5725C11.4439 12.1147 11.2725 12.0719 11.1868 11.9862C9.51533 10.5719 7.58676 11.2147 7.02961 11.4719C6.90104 11.5147 6.77247 11.6004 6.68676 11.6862L4.07247 13.8719C3.85819 13.6576 3.55819 13.4862 3.25819 13.4433C2.87247 13.4004 2.48676 13.4862 2.1439 13.7433L1.15819 14.4719C0.515329 14.9862 0.386758 15.8862 0.858186 16.5719L4.28676 21.1147C4.5439 21.4147 4.88676 21.629 5.27247 21.6719C5.35819 21.6719 5.40104 21.6719 5.48676 21.6719C5.78676 21.6719 6.12961 21.5862 6.38676 21.3719L7.37247 20.6433C7.88676 20.2576 8.10104 19.529 7.8439 18.9719L8.35819 18.5862C8.48676 18.5004 8.61533 18.4576 8.7439 18.4576L13.5868 18.3719C14.4439 18.3719 15.301 18.1147 16.0725 17.6862L21.0439 14.8147C21.301 14.6862 22.0725 14.1719 21.9868 13.4862C21.9439 13.0576 21.601 12.7576 21.001 12.5862ZM6.81533 19.9576L5.82961 20.6862C5.70104 20.8147 5.52961 20.8576 5.40104 20.8576C5.22961 20.8147 5.10104 20.729 4.97247 20.6004L1.5439 16.0576C1.32961 15.8004 1.37247 15.3719 1.67247 15.1576L2.65819 14.429C2.78676 14.3433 2.91533 14.3004 3.0439 14.3004C3.08676 14.3004 3.08676 14.3004 3.12961 14.3004C3.30104 14.3433 3.42961 14.3862 3.51533 14.5147L5.91533 17.6862L6.98676 19.0576C7.15819 19.3576 7.11533 19.7862 6.81533 19.9576ZM20.6153 14.0433L15.6439 16.9147C15.001 17.2576 14.3153 17.4719 13.5868 17.4719L8.70104 17.5576C8.35819 17.5576 8.05819 17.6862 7.80104 17.8576L7.37247 18.2004L6.38676 16.9147L4.58676 14.5147L7.20104 12.329C7.2439 12.2862 7.28676 12.2862 7.32961 12.2433C7.75818 12.0719 9.30104 11.5147 10.5868 12.629C10.8439 12.8433 11.1868 12.9719 11.5296 12.9719H13.801C14.2725 12.9719 14.701 13.1433 15.001 13.4433C15.0868 13.5719 15.2153 13.7433 15.2153 13.8719C15.2153 13.9576 15.0868 14.2147 14.401 14.5147H11.1439C10.8868 14.5147 10.7153 14.6862 10.7153 14.9433C10.7153 15.2004 10.8868 15.3719 11.1439 15.3719H14.6153L14.701 15.329C15.3439 15.029 15.7296 14.729 15.9439 14.3862L18.9868 13.4433C19.5868 13.229 20.2296 13.229 20.7868 13.4004C21.0439 13.4862 21.1296 13.529 21.1725 13.5719C21.0868 13.7004 20.8296 13.9147 20.6153 14.0433Z" fill="#4F4DA2"/>
  <path d="M3.17238 15.3282L2.40095 15.8853C2.22952 16.0139 2.18666 16.3139 2.31524 16.4853C2.40095 16.6139 2.52952 16.6568 2.65809 16.6568C2.74381 16.6568 2.82952 16.6139 2.91524 16.571L3.68666 16.0139C3.85809 15.8853 3.90095 15.5853 3.77238 15.4139C3.60095 15.1996 3.34381 15.1568 3.17238 15.3282Z" fill="#4F4DA2"/>
  <path d="M10.9296 4.99988C11.6582 5.59988 12.6439 5.72845 13.4582 5.72845C13.9296 5.72845 14.4011 5.6856 14.7011 5.59988V8.25702C13.1154 8.47131 11.8725 9.71417 11.8725 11.1713V11.5999H18.6011V11.1713C18.6011 9.62845 17.2296 8.3856 15.5154 8.25702V5.17131C16.1154 5.42845 17.0582 5.72845 18.0011 5.72845C18.4296 5.72845 18.8582 5.6856 19.2439 5.51417C21.0439 4.78559 21.6439 2.25702 21.6868 2.12845C21.7296 1.95702 21.6439 1.78559 21.5154 1.65702C21.4296 1.61417 19.2011 0.242737 17.4011 0.971309C16.4582 1.35702 15.7296 2.25702 15.3011 3.02845C15.1296 2.34274 14.7439 1.57131 14.0582 1.05702C12.4725 -0.228691 9.85821 0.49988 9.72964 0.542737C9.55821 0.585594 9.42964 0.757023 9.42964 0.928452C9.42964 1.05702 9.30107 3.75702 10.9296 4.99988ZM17.7011 10.7856H12.7725C13.0296 9.84274 14.0154 9.11417 15.2154 9.11417C16.4582 9.11417 17.4868 9.84274 17.7011 10.7856ZM17.7439 1.82845C18.8154 1.39988 20.2296 1.99988 20.7868 2.29988C20.5725 2.94274 20.0154 4.31417 18.9439 4.78559C18.0868 5.12845 17.0153 4.87131 16.2439 4.57131L19.3296 3.37131C19.5011 3.28559 19.5868 3.15702 19.5868 2.98559C19.5868 2.94274 19.5868 2.89988 19.5439 2.81417C19.4582 2.59988 19.2011 2.47131 18.9868 2.55702L15.9011 3.75702C16.2868 3.02845 16.8868 2.17131 17.7439 1.82845ZM13.5439 1.69988C14.3154 2.29988 14.5725 3.41417 14.6582 4.1856L11.9582 2.04274C11.7868 1.91417 11.4868 1.91417 11.3582 2.12845C11.3154 2.21417 11.2725 2.29988 11.2725 2.38559C11.2725 2.51417 11.3154 2.64274 11.4439 2.72845L14.1439 4.87131C13.3725 4.95702 12.2582 4.95702 11.4868 4.35702C10.5011 3.58559 10.3725 1.99988 10.3296 1.31417C10.9725 1.14274 12.5582 0.928452 13.5439 1.69988Z" fill="#4F4DA2"/>
</svg>