<svg xmlns="http://www.w3.org/2000/svg" width="22" height="22" viewBox="0 0 22 22" fill="none">
  <path d="M20.9412 20.9376H19.2312V9.57134H20.2775C20.3481 9.57172 20.4174 9.55215 20.4774 9.51489C20.5374 9.47763 20.5856 9.42418 20.6166 9.36071C20.6475 9.29724 20.6599 9.22631 20.6523 9.1561C20.6448 9.08589 20.6175 9.01924 20.5737 8.96384L18.2075 5.93384C18.1706 5.89146 18.1251 5.85749 18.074 5.83421C18.0229 5.81092 17.9674 5.79888 17.9112 5.79888C17.8551 5.79888 17.7996 5.81092 17.7484 5.83421C17.6973 5.85749 17.6518 5.89146 17.615 5.93384L15.2487 8.96384C15.2049 9.01924 15.1777 9.08589 15.1701 9.1561C15.1625 9.22631 15.1749 9.29724 15.2059 9.36071C15.2368 9.42418 15.2851 9.47763 15.3451 9.51489C15.4051 9.55215 15.4743 9.57172 15.545 9.57134H16.5875V20.9376H12.7962V12.9801H13.8387C13.9095 12.9802 13.9788 12.9602 14.0386 12.9223C14.0983 12.8844 14.1461 12.8303 14.1762 12.7663C14.2077 12.7036 14.2205 12.6332 14.2132 12.5634C14.2059 12.4936 14.1788 12.4274 14.135 12.3726L11.7687 9.34259C11.7319 9.30021 11.6863 9.26624 11.6352 9.24296C11.5841 9.21967 11.5286 9.20763 11.4725 9.20763C11.4163 9.20763 11.3608 9.21967 11.3097 9.24296C11.2586 9.26624 11.2131 9.30021 11.1762 9.34259L8.80997 12.3726C8.76708 12.4282 8.74059 12.4948 8.73348 12.5647C8.72637 12.6346 8.73892 12.705 8.76971 12.7682C8.80051 12.8313 8.84833 12.8846 8.90778 12.9221C8.96723 12.9595 9.03596 12.9796 9.10622 12.9801H10.1525V20.9376H6.73622V16.3851H7.78247C7.8528 16.3855 7.92182 16.366 7.98154 16.3288C8.04127 16.2917 8.08926 16.2384 8.11997 16.1751C8.14962 16.1119 8.16146 16.0419 8.15418 15.9725C8.14691 15.9031 8.12082 15.837 8.07872 15.7813L5.70872 12.7513C5.67275 12.7082 5.62774 12.6735 5.57687 12.6497C5.526 12.6258 5.47051 12.6135 5.41434 12.6135C5.35817 12.6135 5.30269 12.6258 5.25182 12.6497C5.20095 12.6735 5.15593 12.7082 5.11997 12.7513L2.75372 15.7813C2.70993 15.8362 2.68278 15.9024 2.67547 15.9722C2.66816 16.042 2.681 16.1124 2.71247 16.1751C2.74198 16.2385 2.78918 16.292 2.84838 16.3293C2.90758 16.3665 2.97627 16.3859 3.04622 16.3851H4.09247V20.9376H1.43372V1.62134C1.43372 1.52188 1.39421 1.4265 1.32388 1.35617C1.25355 1.28585 1.15817 1.24634 1.05872 1.24634C0.95926 1.24634 0.863877 1.28585 0.793551 1.35617C0.723225 1.4265 0.683716 1.52188 0.683716 1.62134V21.3126C0.683716 21.412 0.723225 21.5074 0.793551 21.5778C0.863877 21.6481 0.95926 21.6876 1.05872 21.6876H20.9412C21.0407 21.6876 21.1361 21.6481 21.2064 21.5778C21.2767 21.5074 21.3162 21.412 21.3162 21.3126C21.3162 21.2131 21.2767 21.1177 21.2064 21.0474C21.1361 20.9771 21.0407 20.9376 20.9412 20.9376ZM5.98622 16.0101V20.9376H4.84247V16.0101C4.84247 15.9106 4.80296 15.8152 4.73263 15.7449C4.66231 15.6746 4.56692 15.6351 4.46747 15.6351H3.81872L5.41622 13.5913L7.01372 15.6351H6.36122C6.26176 15.6351 6.16638 15.6746 6.09605 15.7449C6.02573 15.8152 5.98622 15.9106 5.98622 16.0101ZM12.0462 12.6051V20.9376H10.9025V12.6051C10.9025 12.5056 10.863 12.4102 10.7926 12.3399C10.7223 12.2696 10.6269 12.2301 10.5275 12.2301H9.87497L11.4725 10.1826L13.07 12.2301H12.4212C12.3718 12.2296 12.3228 12.2389 12.2771 12.2576C12.2314 12.2763 12.1899 12.3039 12.1549 12.3388C12.12 12.3737 12.0924 12.4153 12.0737 12.461C12.0551 12.5067 12.0457 12.5557 12.0462 12.6051ZM18.4812 9.19634V20.9376H17.3375V9.19634C17.338 9.14695 17.3286 9.09796 17.3099 9.05224C17.2913 9.00652 17.2637 8.96498 17.2288 8.93006C17.1938 8.89513 17.1523 8.86753 17.1066 8.84886C17.0608 8.83019 17.0119 8.82084 16.9625 8.82134H16.3137L17.9112 6.77384L19.5087 8.82134H18.8562C18.7568 8.82134 18.6614 8.86085 18.5911 8.93117C18.5207 9.0015 18.4812 9.09688 18.4812 9.19634Z" fill="#4F4DA2"/>
  <path d="M7.32501 8.34031C7.26956 8.53117 7.16308 8.70328 7.01704 8.83809C6.871 8.97289 6.69094 9.06529 6.49626 9.10531V9.34531C6.49626 9.44477 6.45675 9.54015 6.38642 9.61048C6.3161 9.6808 6.22071 9.72031 6.12126 9.72031C6.0218 9.72031 5.92642 9.6808 5.85609 9.61048C5.78577 9.54015 5.74626 9.44477 5.74626 9.34531V9.04156C5.55897 8.96659 5.37938 8.87366 5.21001 8.76406C5.14626 8.72281 5.08251 8.68531 5.02251 8.65156C4.93548 8.60333 4.87119 8.5225 4.84376 8.42685C4.81633 8.33121 4.82802 8.22859 4.87626 8.14156C4.92449 8.05454 5.00533 7.99024 5.10097 7.96281C5.19661 7.93539 5.29923 7.94708 5.38626 7.99531C5.46126 8.03656 5.53251 8.08156 5.60751 8.12656C5.79164 8.27134 6.01232 8.3622 6.24501 8.38906C6.32227 8.39008 6.39795 8.36722 6.46172 8.32359C6.52549 8.27995 6.57422 8.21769 6.60126 8.14531C6.61626 8.09656 6.62001 8.01781 6.50751 7.94281L5.52126 7.28281C5.40732 7.21073 5.30997 7.11531 5.23563 7.00283C5.16129 6.89035 5.11166 6.76339 5.09001 6.63031C5.07018 6.5051 5.07731 6.3771 5.11094 6.25487C5.14457 6.13264 5.20392 6.019 5.28501 5.92156C5.40629 5.77209 5.56563 5.65808 5.74626 5.59156V5.25781C5.74626 5.15836 5.78577 5.06297 5.85609 4.99265C5.92642 4.92232 6.0218 4.88281 6.12126 4.88281C6.22071 4.88281 6.3161 4.92232 6.38642 4.99265C6.45675 5.06297 6.49626 5.15836 6.49626 5.25781V5.55031C6.62221 5.57947 6.7417 5.63159 6.84876 5.70406L7.24626 5.96656C7.3293 6.02176 7.38702 6.10769 7.40671 6.20544C7.4264 6.30319 7.40646 6.40477 7.35126 6.48781C7.29606 6.57086 7.21013 6.62858 7.11238 6.64827C7.01463 6.66796 6.91305 6.64801 6.83001 6.59281L6.43251 6.32656C6.34603 6.27071 6.24302 6.24621 6.14065 6.25712C6.03829 6.26804 5.94276 6.31373 5.87001 6.38656C5.85481 6.40388 5.84331 6.42413 5.83622 6.44605C5.82912 6.46798 5.82658 6.49112 5.82876 6.51406C5.84519 6.57482 5.88405 6.62709 5.93751 6.66031L6.92751 7.32031C7.09527 7.42437 7.22473 7.58007 7.29641 7.764C7.36809 7.94794 7.37813 8.15018 7.32501 8.34031Z" fill="#4F4DA2"/>
  <path d="M6.12141 3.7207C5.41311 3.7207 4.72071 3.93074 4.13178 4.32425C3.54284 4.71777 3.08383 5.27708 2.81277 5.93147C2.54171 6.58586 2.47079 7.30593 2.60898 8.00062C2.74716 8.69531 3.08824 9.33343 3.58909 9.83428C4.08993 10.3351 4.72805 10.6762 5.42275 10.8144C6.11744 10.9526 6.83751 10.8817 7.4919 10.6106C8.14629 10.3395 8.7056 9.88052 9.09911 9.29159C9.49263 8.70266 9.70266 8.01026 9.70266 7.30195C9.70207 6.35233 9.32457 5.44177 8.65308 4.77029C7.98159 4.0988 7.07104 3.7213 6.12141 3.7207ZM6.12141 10.1332C5.56144 10.1332 5.01405 9.96715 4.54845 9.65605C4.08286 9.34495 3.71997 8.90277 3.50568 8.38543C3.29139 7.86808 3.23532 7.29881 3.34456 6.7496C3.45381 6.2004 3.72346 5.69591 4.11942 5.29996C4.51537 4.904 5.01985 4.63435 5.56906 4.5251C6.11827 4.41586 6.68754 4.47193 7.20489 4.68622C7.72223 4.90051 8.16441 5.2634 8.47551 5.72899C8.78661 6.19459 8.95266 6.74198 8.95266 7.30195C8.95137 8.05245 8.65267 8.77184 8.12198 9.30253C7.5913 9.83321 6.87191 10.1319 6.12141 10.1332Z" fill="#4F4DA2"/>
  <path d="M12.5954 5.24261C12.6573 5.27711 12.7203 5.31761 12.7851 5.35511C12.9538 5.4651 13.1328 5.55841 13.3195 5.63373V5.93373C13.3195 6.03319 13.359 6.12857 13.4293 6.1989C13.4997 6.26923 13.595 6.30873 13.6945 6.30873C13.794 6.30873 13.8893 6.26923 13.9597 6.1989C14.03 6.12857 14.0695 6.03319 14.0695 5.93373V5.69598C14.2639 5.65584 14.4438 5.56375 14.5901 5.4295C14.7364 5.29526 14.8435 5.12389 14.9001 4.93361C14.9523 4.74288 14.9415 4.54038 14.8693 4.3563C14.797 4.17222 14.6673 4.01641 14.4993 3.91211L13.5104 3.25023C13.4836 3.23468 13.4603 3.21376 13.442 3.18879C13.4237 3.16381 13.4107 3.13533 13.4039 3.10511C13.4011 3.08237 13.4033 3.05931 13.4101 3.03746C13.417 3.01561 13.4284 2.99546 13.4436 2.97836C13.5163 2.90547 13.6118 2.85971 13.7142 2.84872C13.8166 2.83774 13.9196 2.86218 14.0061 2.91798L14.401 3.18236C14.4419 3.21077 14.488 3.23074 14.5367 3.24112C14.5854 3.25151 14.6357 3.25208 14.6847 3.24282C14.7336 3.23357 14.7802 3.21466 14.8217 3.1872C14.8633 3.15974 14.8989 3.12428 14.9266 3.0829C14.9543 3.04151 14.9735 2.99502 14.983 2.94615C14.9925 2.89728 14.9922 2.84699 14.9821 2.79823C14.972 2.74948 14.9523 2.70322 14.9241 2.66216C14.8959 2.62111 14.8599 2.58607 14.818 2.55911L14.4231 2.29661C14.3145 2.22583 14.1947 2.17397 14.0688 2.14323V1.84961C14.0688 1.75015 14.0292 1.65477 13.9589 1.58444C13.8886 1.51412 13.7932 1.47461 13.6938 1.47461C13.5943 1.47461 13.4989 1.51412 13.4286 1.58444C13.3583 1.65477 13.3188 1.75015 13.3188 1.84961V2.18711C13.138 2.25247 12.9781 2.36529 12.856 2.51373C12.7759 2.61184 12.7173 2.72562 12.6839 2.84776C12.6505 2.9699 12.6431 3.09767 12.6621 3.22286C12.6845 3.35559 12.7344 3.48217 12.8087 3.59443C12.883 3.70668 12.98 3.80213 13.0934 3.87461L14.0815 4.53611C14.194 4.61111 14.1891 4.68611 14.1756 4.73823C14.1482 4.81068 14.0992 4.87295 14.0352 4.91661C13.9712 4.96028 13.8953 4.98323 13.8179 4.98236C13.5853 4.95491 13.3648 4.86411 13.1804 4.71986C13.1054 4.67298 13.0304 4.62723 12.9599 4.58711C12.8732 4.54035 12.7716 4.52958 12.677 4.55713C12.5824 4.58467 12.5025 4.64833 12.4545 4.73433C12.4064 4.82034 12.3942 4.92178 12.4203 5.01675C12.4465 5.11172 12.509 5.19258 12.5943 5.24186L12.5954 5.24261Z" fill="#4F4DA2"/>
  <path d="M13.6925 0.3125C12.9843 0.313242 12.2923 0.523908 11.7039 0.917872C11.1154 1.31183 10.657 1.87141 10.3865 2.52586C10.116 3.18031 10.0457 3.90027 10.1843 4.59471C10.3229 5.28916 10.6642 5.92693 11.1652 6.4274C11.6662 6.92787 12.3044 7.26858 12.999 7.40646C13.6935 7.54434 14.4134 7.4732 15.0676 7.20203C15.7218 6.93087 16.2809 6.47185 16.6742 5.883C17.0675 5.29414 17.2775 4.60189 17.2775 3.89375C17.2763 2.94366 16.8981 2.03288 16.2259 1.36142C15.5538 0.689951 14.6426 0.312698 13.6925 0.3125ZM13.6925 6.725C13.1327 6.72426 12.5857 6.55758 12.1206 6.24603C11.6555 5.93447 11.2931 5.49203 11.0794 4.97463C10.8657 4.45722 10.8102 3.88807 10.9199 3.33911C11.0295 2.79014 11.2995 2.28601 11.6956 1.89043C12.0917 1.49485 12.5962 1.22557 13.1453 1.11663C13.6944 1.00769 14.2635 1.06398 14.7806 1.27838C15.2977 1.49278 15.7397 1.85567 16.0506 2.32118C16.3615 2.7867 16.5275 3.33394 16.5275 3.89375C16.5262 4.6449 16.227 5.36485 15.6955 5.89565C15.164 6.42644 14.4436 6.7247 13.6925 6.725Z" fill="#4F4DA2"/>
</svg>