<svg xmlns="http://www.w3.org/2000/svg" width="122" height="47" viewBox="0 0 122 47" fill="none">
  <g clip-path="url(#clip0_462_11)">
    <path fill-rule="evenodd" clip-rule="evenodd" d="M14.0715 20.28C13.6774 20.1864 12.9974 20.3346 11.1892 20.6854C8.16777 21.2779 0.587207 22.619 0.123564 22.7983C-0.340079 22.9776 0.417205 23.3285 2.68133 24.5057C4.94545 25.683 9.90644 28.5054 10.8955 28.7315C11.8846 28.9576 14.7979 28.2559 17.0388 27.8505C19.2798 27.4451 21.5207 27.1488 21.343 26.798C21.2657 26.6264 19.8052 25.4335 18.2752 24.0769C17.9506 23.7963 14.2801 20.3424 14.0251 20.28" fill="white"/>
    <path fill-rule="evenodd" clip-rule="evenodd" d="M15.5165 20.28C15.4624 20.6074 21.7525 26.2756 23.4371 27.4217C25.1217 28.5678 25.7399 28.6847 25.5621 27.7491C25.3381 27.0552 24.998 26.4081 24.5421 25.839C24.4571 25.6051 26.3426 22.1979 27.6872 19.3522C29.0317 16.5064 29.9513 14.5339 29.4027 12.803C28.854 11.0722 25.7321 2.67523 25.5003 2.29319C25.2685 1.91116 25.0599 2.02031 23.9626 4.28133C21.7525 8.92811 19.6275 13.1071 17.0543 17.5434C16.1966 19.0247 15.5165 20.2488 15.4779 20.2956" fill="white"/>
    <path fill-rule="evenodd" clip-rule="evenodd" d="M15.787 18.6193C16.4979 16.5064 20.8098 3.49385 21.2734 2.25419C22.2625 -0.342082 22.3707 0.172494 22.9812 2.32436C23.1435 2.90131 23.553 3.87588 23.4294 4.24232C23.3057 4.60877 17.8502 15.3057 17.0156 16.8962C16.1811 18.4867 15.787 19.2196 15.787 18.6193Z" fill="white"/>
    <path fill-rule="evenodd" clip-rule="evenodd" d="M14.5507 11.3996C14.6511 10.9396 14.3497 10.9552 14.2338 11.2593C13.8475 12.421 13.6929 13.6529 13.7779 14.8769C13.9788 16.0074 14.3575 17.0912 14.8829 18.1047C15.0452 18.4088 15.2616 18.1047 15.0993 17.863C14.937 17.6213 13.9325 15.4305 14.0716 13.9881C14.1411 13.0993 14.3034 12.2261 14.5507 11.3684" fill="white"/>
    <path d="M15.076 18.3776C14.9524 18.3698 14.852 18.2918 14.8056 18.1749C14.2724 17.1379 13.8938 16.0386 13.6774 14.8925C13.5924 13.6451 13.7547 12.3898 14.1488 11.2047C14.2338 10.9864 14.4192 10.8617 14.5738 10.9085C14.7283 10.9552 14.821 11.0332 14.736 11.4308V11.5322C14.5042 12.3508 14.3497 13.1851 14.2801 14.0349C14.3342 15.3525 14.6819 16.639 15.2924 17.8007C15.3697 17.941 15.3697 18.1125 15.2924 18.2529C15.2538 18.3308 15.1688 18.3854 15.076 18.3854V18.3776ZM14.4733 11.2047C14.4733 11.2047 14.4269 11.2749 14.4115 11.3139C14.0328 12.4522 13.8783 13.6529 13.9633 14.8535C14.1719 15.9607 14.5429 17.0366 15.0529 18.0424C15.0529 18.0424 15.0606 17.9722 15.0529 17.9332C14.9215 17.7227 13.8551 15.4851 14.0019 13.9881C14.0715 13.1227 14.2183 12.2729 14.4579 11.4386V11.3529C14.4579 11.2983 14.4579 11.2515 14.4347 11.1969H14.4733V11.2047Z" fill="white"/>
    <path fill-rule="evenodd" clip-rule="evenodd" d="M12.812 17.8708C13.1752 18.0969 13.1133 18.2763 12.9124 18.2373C12.2633 17.9098 11.6451 17.52 11.0656 17.0756C8.90191 15.5241 7.54189 14.2688 7.22506 11.4698C7.13234 10.8461 7.13234 10.2146 7.22506 9.59863C7.3487 9.31795 7.52643 9.27117 7.50325 9.95728C7.3487 11.4932 7.71962 13.0291 8.55417 14.3156C9.39646 15.563 11.5679 17.1224 12.812 17.8864" fill="white"/>
    <path d="M12.9665 18.3776H12.8892C12.2169 18.0424 11.5755 17.6447 10.9805 17.1925C8.90957 15.6956 7.41046 14.4092 7.14 11.4854C7.055 10.8383 7.07046 10.1756 7.18637 9.53627C7.30228 9.27898 7.42592 9.24779 7.51864 9.26339C7.61137 9.27898 7.75047 9.51288 7.74274 9.95729V10.1444C7.59592 11.579 7.93592 13.0136 8.70866 14.2298C9.5664 15.4929 11.8383 17.0912 12.9278 17.7617C13.2755 17.98 13.2755 18.1593 13.2369 18.2451C13.1983 18.3542 13.0824 18.4166 12.9665 18.3854V18.3776ZM7.40273 9.65322C7.31773 10.2536 7.31773 10.8617 7.40273 11.4542C7.68092 14.2766 9.06412 15.4695 11.1428 16.9586C11.6528 17.3251 12.186 17.6759 12.7346 17.9878C11.5446 17.2549 9.31913 15.6644 8.44593 14.378C7.63456 13.1149 7.26364 11.6102 7.41046 10.1132V9.64542L7.40273 9.65322Z" fill="white"/>
    <path d="M37.586 18.0657C36.3573 18.0657 35.3605 17.06 35.3605 15.8203C35.3605 14.5807 36.3573 13.5749 37.586 13.5749C38.8146 13.5749 39.8115 14.5807 39.8115 15.8203C39.8115 17.06 38.8146 18.0657 37.586 18.0657ZM35.9555 20.7946H39.2164V38.0952H35.9555V20.7946Z" fill="white"/>
    <path d="M43.2116 29.3786C43.2038 24.5525 47.0753 20.6386 51.8585 20.623C56.6418 20.6152 60.5209 24.5213 60.5364 29.3474C60.5441 34.1735 56.6727 38.0874 51.8894 38.103C51.8817 38.103 51.8662 38.103 51.8585 38.103C49.9035 38.1108 48.0103 37.4403 46.488 36.2163V46.5078H43.227V29.3864L43.2116 29.3786ZM57.2677 29.3786C57.2677 26.3691 54.849 23.9366 51.874 23.9366C48.8989 23.9366 46.4802 26.3769 46.4802 29.3786C46.4802 32.3881 48.8989 34.8207 51.874 34.8207C54.849 34.8207 57.2677 32.3803 57.2677 29.3786Z" fill="white"/>
    <path d="M79.6925 29.3786C79.6462 34.1813 75.7516 38.0251 70.9915 37.9783C66.2314 37.9315 62.4218 34.002 62.4682 29.1993C62.5146 24.3966 66.4092 20.5529 71.1692 20.5996C73.9588 20.6308 76.5629 22.0186 78.1548 24.3342L68.4724 34.1423C69.2451 34.5478 70.0951 34.7661 70.9683 34.7661C73.9356 34.8051 76.3775 32.4193 76.4161 29.4254C76.4161 29.402 76.4161 29.3708 76.4161 29.3474L79.6848 29.3786H79.6925ZM66.1928 31.7956L73.4874 24.4356C72.707 24.0457 71.8492 23.8508 70.9838 23.843C68.0165 23.843 65.6132 26.2678 65.6055 29.2617C65.6055 29.3007 65.6055 29.3318 65.6055 29.3708C65.621 30.2129 65.8219 31.0315 66.1928 31.7878V31.7956Z" fill="white"/>
    <path d="M98.47 11.7661V29.3085C98.4855 34.1424 94.614 38.0719 89.8231 38.0953C85.0321 38.1108 81.1375 34.2047 81.1143 29.3708C81.0988 24.5369 84.9703 20.6075 89.7613 20.5841C89.769 20.5841 89.7844 20.5841 89.7922 20.5841C91.7472 20.5841 93.6481 21.2702 95.1627 22.5098V11.7583H98.4623L98.47 11.7661ZM95.2091 29.3085V29.2695C95.2013 26.221 92.7363 23.7573 89.7149 23.7651C86.6935 23.7729 84.2516 26.26 84.2594 29.3085C84.2671 32.3569 86.7321 34.8207 89.7535 34.8129C92.7595 34.8051 95.1936 32.3414 95.2091 29.3085Z" fill="white"/>
    <path d="M104.126 18.0657C102.898 18.0657 101.901 17.06 101.901 15.8203C101.901 14.5807 102.898 13.5749 104.126 13.5749C105.355 13.5749 106.352 14.5807 106.352 15.8203C106.352 17.06 105.355 18.0657 104.126 18.0657ZM102.496 20.7946H105.757V38.0952H102.496V20.7946Z" fill="white"/>
    <path d="M107.921 38.1264V34.8363C110.896 34.8363 113.314 32.4115 113.33 29.4176C113.322 24.5915 117.194 20.6776 121.977 20.662C121.985 20.662 122 20.662 122.008 20.662V23.9522C119.017 23.9522 116.599 26.4003 116.599 29.4098C116.575 34.2281 112.696 38.1264 107.921 38.1264Z" fill="white"/>
  </g>
  <defs>
    <clipPath id="clip0_462_11">
      <rect width="122" height="46" fill="white" transform="translate(0 0.5)"/>
    </clipPath>
  </defs>
</svg>