<svg xmlns="http://www.w3.org/2000/svg" width="40" height="40" viewBox="0 0 40 40" fill="none">
<path d="M34.9797 17.8125L8.72967 2.8297C8.28719 2.58148 7.77967 2.47377 7.27452 2.52087C6.76936 2.56796 6.2905 2.76763 5.90152 3.09336C5.51255 3.41909 5.23189 3.85545 5.09681 4.34448C4.96174 4.83351 4.97865 5.35207 5.1453 5.83126L9.98905 19.9672C9.98843 19.9724 9.98843 19.9776 9.98905 19.9828C9.98818 19.988 9.98818 19.9933 9.98905 19.9984L5.1453 34.1656C5.01184 34.5426 4.97075 34.946 5.02548 35.3422C5.08021 35.7383 5.22916 36.1155 5.45983 36.4421C5.6905 36.7688 5.99615 37.0353 6.35115 37.2194C6.70614 37.4035 7.10011 37.4997 7.49999 37.5C7.93384 37.4989 8.36008 37.3859 8.73749 37.1719L34.9734 22.1641C35.3604 21.9473 35.6828 21.6314 35.9074 21.2489C36.132 20.8664 36.2508 20.431 36.2516 19.9874C36.2524 19.5439 36.1352 19.1081 35.9119 18.7247C35.6887 18.3414 35.3675 18.0244 34.9812 17.8063L34.9797 17.8125ZM7.49999 35V34.9859L12.2094 21.25H21.25C21.5815 21.25 21.8995 21.1183 22.1339 20.8839C22.3683 20.6495 22.5 20.3315 22.5 20C22.5 19.6685 22.3683 19.3505 22.1339 19.1161C21.8995 18.8817 21.5815 18.75 21.25 18.75H12.2219L7.50936 5.01876L7.49999 5.00001L33.75 19.9734L7.49999 35Z" fill="white"/>
</svg>