<svg width="28" height="28" viewBox="0 0 28 28" fill="none" xmlns="http://www.w3.org/2000/svg">
<g id="Icon / Social media / facebook">
<path id="Vector" d="M17.1034 1.16663C15.4115 1.16663 13.7889 1.85193 12.5926 3.07177C11.3962 4.29161 10.7241 5.94607 10.7241 7.67119V11.2927H7.31034C7.13931 11.2927 7 11.4333 7 11.6091V16.3908C7 16.5652 7.13793 16.7073 7.31034 16.7073H10.7241V26.5169C10.7241 26.6912 10.8621 26.8333 11.0345 26.8333H15.7241C15.8952 26.8333 16.0345 26.6927 16.0345 26.5169V16.7073H19.4786C19.6207 16.7073 19.7448 16.6088 19.7793 16.4682L20.9517 11.6864C20.9633 11.6398 20.9642 11.5911 20.9545 11.544C20.9448 11.4969 20.9247 11.4527 20.8957 11.4147C20.8667 11.3767 20.8296 11.346 20.7872 11.3249C20.7448 11.3037 20.6982 11.2927 20.651 11.2927H16.0345V7.67119C16.0345 7.52806 16.0621 7.38632 16.1159 7.25409C16.1696 7.12185 16.2483 7.00169 16.3476 6.90048C16.4468 6.79927 16.5647 6.71898 16.6944 6.66421C16.8241 6.60943 16.9631 6.58124 17.1034 6.58124H20.6897C20.8607 6.58124 21 6.4406 21 6.2648V1.48306C21 1.30867 20.8621 1.16663 20.6897 1.16663H17.1034Z" fill="white"/>
</g>
</svg>
