<svg width="28" height="28" viewBox="0 0 28 28" fill="none" xmlns="http://www.w3.org/2000/svg">
<g id="Icon / Social media / Google">
<path id="Vector" d="M24.9375 14C24.9374 16.5753 24.0285 19.068 22.3709 21.039C20.7134 23.0101 18.4135 24.333 15.8763 24.7748C13.3392 25.2166 10.7275 24.7489 8.50124 23.4542C6.27502 22.1594 4.57707 20.1207 3.70645 17.6969C2.83583 15.2732 2.84838 12.62 3.7419 10.2046C4.63542 7.78926 6.35259 5.76665 8.59096 4.49303C10.8293 3.21942 13.4453 2.7765 15.9782 3.24229C18.5111 3.70808 20.7984 5.0527 22.4372 7.03933C22.5469 7.17226 22.6294 7.32551 22.6799 7.49031C22.7304 7.65512 22.748 7.82826 22.7316 7.99986C22.7152 8.17145 22.6651 8.33813 22.5843 8.49038C22.5035 8.64264 22.3935 8.77748 22.2605 8.88722C22.1276 8.99695 21.9744 9.07943 21.8096 9.12994C21.6448 9.18046 21.4716 9.19801 21.3 9.18161C21.1284 9.16521 20.9617 9.11517 20.8095 9.03435C20.6572 8.95353 20.5224 8.84351 20.4127 8.71058C19.2032 7.24435 17.5277 6.23691 15.6655 5.85616C13.8033 5.4754 11.8669 5.74433 10.1789 6.61812C8.49097 7.49191 7.15345 8.91779 6.38927 10.6581C5.62508 12.3984 5.4804 14.3481 5.97932 16.1822C6.47825 18.0162 7.59066 19.6239 9.13115 20.7373C10.6716 21.8507 12.5472 22.4025 14.4451 22.3008C16.3431 22.199 18.149 21.45 19.5616 20.1783C20.9743 18.9067 21.9085 17.1893 22.2086 15.3125H14C13.6519 15.3125 13.3181 15.1742 13.0719 14.928C12.8258 14.6819 12.6875 14.3481 12.6875 14C12.6875 13.6519 12.8258 13.318 13.0719 13.0719C13.3181 12.8257 13.6519 12.6875 14 12.6875H23.625C23.9731 12.6875 24.3069 12.8257 24.5531 13.0719C24.7992 13.318 24.9375 13.6519 24.9375 14Z" fill="white"/>
</g>
</svg>