<svg xmlns="http://www.w3.org/2000/svg" width="40" height="40" viewBox="0 0 40 40" fill="none">
<path d="M28.3844 20.8844L15.8844 33.3844C15.7683 33.5005 15.6304 33.5926 15.4786 33.6555C15.3269 33.7183 15.1643 33.7507 15 33.7507C14.8358 33.7507 14.6731 33.7183 14.5214 33.6555C14.3697 33.5926 14.2318 33.5005 14.1156 33.3844C13.9995 33.2682 13.9074 33.1304 13.8445 32.9786C13.7817 32.8269 13.7493 32.6642 13.7493 32.5C13.7493 32.3358 13.7817 32.1731 13.8445 32.0214C13.9074 31.8696 13.9995 31.7318 14.1156 31.6156L25.7328 20L14.1156 8.38437C13.8811 8.14982 13.7493 7.8317 13.7493 7.49999C13.7493 7.16829 13.8811 6.85017 14.1156 6.61562C14.3502 6.38107 14.6683 6.2493 15 6.2493C15.3317 6.2493 15.6498 6.38107 15.8844 6.61562L28.3844 19.1156C28.5006 19.2317 28.5928 19.3696 28.6557 19.5213C28.7186 19.6731 28.751 19.8357 28.751 20C28.751 20.1643 28.7186 20.3269 28.6557 20.4787C28.5928 20.6304 28.5006 20.7683 28.3844 20.8844Z" fill="black"/>
</svg>