<svg xmlns="http://www.w3.org/2000/svg" width="70" height="71" viewBox="0 0 70 71" fill="none">
  <path d="M18.3776 63.6104C31.2232 60.6586 38.124 54.4081 40.9249 45.8266C36.9849 46.3615 35.2031 47.2398 33.478 47.5535C30.2374 55.4185 23.6697 60.7147 18.3776 63.6104Z" fill="white"/>
  <mask id="mask0_257_801" style="mask-type:luminance" maskUnits="userSpaceOnUse" x="18" y="45" width="23" height="19">
    <path d="M18.3776 63.6104C31.2232 60.6586 38.124 54.4081 40.9249 45.8266C36.9849 46.3615 35.2031 47.2398 33.478 47.5535C30.2374 55.4185 23.6697 60.7147 18.3776 63.6104Z" fill="white"/>
  </mask>
  <g mask="url(#mask0_257_801)">
    <path d="M40.9249 45.8266H18.3776V63.6104H40.9249V45.8266Z" fill="white"/>
  </g>
  <path d="M23.6597 68.8802C35.383 62.8939 40.5253 55.1576 41.1181 46.1567C37.4313 47.6327 35.9192 48.9171 34.3239 49.6435C33.1316 58.0501 28.0759 64.7826 23.6597 68.8802Z" fill="white"/>
  <mask id="mask1_257_801" style="mask-type:luminance" maskUnits="userSpaceOnUse" x="23" y="46" width="19" height="23">
    <path d="M23.6597 68.8802C35.383 62.8939 40.5253 55.1576 41.1181 46.1567C37.4313 47.6327 35.9192 48.9171 34.3239 49.6435C33.1316 58.0501 28.0759 64.7826 23.6597 68.8802Z" fill="white"/>
  </mask>
  <g mask="url(#mask1_257_801)">
    <path d="M41.1181 46.1567H23.6597V68.8802H41.1181V46.1567Z" fill="white"/>
  </g>
  <path d="M31.4131 71C39.5095 63.5807 41.9108 56.2076 40.3588 48.8214C37.721 50.8289 36.7918 52.1992 35.6694 53.1336C36.6053 60.1765 34.0475 66.7208 31.4131 71Z" fill="white"/>
  <mask id="mask2_257_801" style="mask-type:luminance" maskUnits="userSpaceOnUse" x="31" y="48" width="10" height="23">
    <path d="M31.4131 71C39.5095 63.5807 41.9108 56.2076 40.3588 48.8214C37.721 50.8289 36.7918 52.1992 35.6694 53.1336C36.6053 60.1765 34.0475 66.7208 31.4131 71Z" fill="white"/>
  </mask>
  <g mask="url(#mask2_257_801)">
    <path d="M41.9108 48.8214H31.4131V71H41.9108V48.8214Z" fill="white"/>
  </g>
  <path d="M2.77097 25.5762C7.22382 5.01222 34.8335 31.0936 38.8767 38.8233C38.8767 38.8233 47.839 56.4322 36.552 70.2571C44.0356 54.9694 31.6562 48.3921 20.6623 44.5058C8.39282 40.1672 10.2512 31.1696 5.93825 29.0069C3.80342 27.9371 1.53869 29.0069 0.323067 31.1696C1.01179e-05 29.2809 0.173195 27.8182 2.77097 25.5762Z" fill="white"/>
  <mask id="mask3_257_801" style="mask-type:luminance" maskUnits="userSpaceOnUse" x="0" y="17" width="43" height="54">
    <path d="M2.77097 25.5762C7.22382 5.01222 34.8335 31.0936 38.8767 38.8233C38.8767 38.8233 47.839 56.4322 36.552 70.2571C44.0356 54.9694 31.6562 48.3921 20.6623 44.5058C8.39282 40.1672 10.2512 31.1696 5.93825 29.0069C3.80342 27.9371 1.53869 29.0069 0.323067 31.1696C1.01179e-05 29.2809 0.173195 27.8182 2.77097 25.5762Z" fill="white"/>
  </mask>
  <g mask="url(#mask3_257_801)">
    <path d="M47.839 5.01221H0V70.2571H47.839V5.01221Z" fill="white"/>
  </g>
  <path fill-rule="evenodd" clip-rule="evenodd" d="M37.4912 68.1208C42.8499 54.3487 31.1267 48.2072 20.6623 44.5058C8.39281 40.1672 10.2512 31.1696 5.93825 29.0069C3.80341 27.9371 1.53868 29.0069 0.323059 31.1696C0.323059 31.1696 4.68599 17.1796 22.524 32.9988C22.524 33.0021 47.2861 44.0006 37.4912 68.1208Z" fill="white"/>
  <path d="M7.92657 31.0012C20.0528 42.6997 29.9077 -1.9316 63.6888 2.70092C31.15 5.92684 32.652 43.0761 15.4335 41.8808" fill="white"/>
  <path d="M7.92657 31.0012C20.0528 42.6997 29.9077 -1.9316 63.6888 2.70092C31.15 5.92684 32.652 43.0761 15.4335 41.8808" stroke="#231916" stroke-width="0.5669" stroke-miterlimit="22.9256"/>
  <path d="M26.4007 46.2988C29.0618 39.7809 28.4223 34.838 25.4782 30.9649C24.4957 32.8503 23.733 34.455 23.34 35.3069C25.1019 39.7776 26.3008 44.3044 26.4007 46.2988Z" fill="white"/>
  <mask id="mask4_257_801" style="mask-type:luminance" maskUnits="userSpaceOnUse" x="23" y="30" width="6" height="17">
    <path d="M26.4007 46.2988C29.0618 39.7809 28.4223 34.838 25.4782 30.9649C24.4957 32.8503 23.733 34.455 23.34 35.3069C25.1019 39.7776 26.3008 44.3044 26.4007 46.2988Z" fill="white"/>
  </mask>
  <g mask="url(#mask4_257_801)">
    <path d="M29.0653 30.9614H23.3435V46.2953H29.0653V30.9614Z" fill="white"/>
  </g>
  <path d="M31.4664 47.2761C34.1708 37.7634 32.5122 30.955 27.7962 25.989C26.7171 28.7724 25.9012 31.1333 25.4849 32.3814C28.6355 38.361 31.0135 44.5058 31.4664 47.2761Z" fill="white"/>
  <mask id="mask5_257_801" style="mask-type:luminance" maskUnits="userSpaceOnUse" x="25" y="25" width="8" height="23">
    <path d="M31.4664 47.2761C34.1708 37.7634 32.5122 30.955 27.7962 25.989C26.7171 28.7724 25.9012 31.1333 25.4849 32.3814C28.6355 38.361 31.0135 44.5058 31.4664 47.2761Z" fill="white"/>
  </mask>
  <g mask="url(#mask5_257_801)">
    <path d="M34.1706 25.989H25.4814V47.2761H34.1706V25.989Z" fill="white"/>
  </g>
  <path d="M38.7901 47.0318C40.2289 36.1918 37.318 29.0036 31.3598 24.3116C30.6238 27.5277 29.8045 29.6673 29.548 31.097C33.9576 37.146 37.8509 44.0733 38.7901 47.0318Z" fill="white"/>
  <mask id="mask6_257_801" style="mask-type:luminance" maskUnits="userSpaceOnUse" x="29" y="24" width="11" height="24">
    <path d="M38.7901 47.0318C40.2289 36.1918 37.318 29.0036 31.3598 24.3116C30.6238 27.5277 29.8045 29.6673 29.548 31.097C33.9576 37.146 37.8509 44.0733 38.7901 47.0318Z" fill="white"/>
  </mask>
  <g mask="url(#mask6_257_801)">
    <path d="M40.2254 24.3116H29.5446V47.0318H40.2254V24.3116Z" fill="white"/>
  </g>
  <path d="M44.5085 46.7049C46.4802 34.3757 42.1039 27.0951 33.7544 22.8654C33.1083 24.0442 32.5088 25.1833 31.9659 26.2432C37.8342 33.0583 43.4228 42.9242 44.5085 46.7049Z" fill="white"/>
  <mask id="mask7_257_801" style="mask-type:luminance" maskUnits="userSpaceOnUse" x="31" y="22" width="14" height="25">
    <path d="M44.5085 46.7049C46.4802 34.3757 42.1039 27.0951 33.7544 22.8654C33.1083 24.0442 32.5088 25.1833 31.9659 26.2432C37.8342 33.0583 43.4228 42.9242 44.5085 46.7049Z" fill="white"/>
  </mask>
  <g mask="url(#mask7_257_801)">
    <path d="M46.4802 22.8654H31.9659V46.7049H46.4802V22.8654Z" fill="white"/>
  </g>
  <path d="M55.5324 42.8582C53.1478 28.6602 45.2612 22.9248 34.0541 22.0895C33.5745 22.9513 33.1149 23.7998 32.6853 24.6154C41.6576 29.0894 52.8314 38.9455 55.5324 42.8582Z" fill="white"/>
  <mask id="mask8_257_801" style="mask-type:luminance" maskUnits="userSpaceOnUse" x="32" y="22" width="24" height="21">
    <path d="M55.5324 42.8582C53.1478 28.6602 45.2612 22.9248 34.0541 22.0895C33.5745 22.9513 33.1149 23.7998 32.6853 24.6154C41.6576 29.0894 52.8314 38.9455 55.5324 42.8582Z" fill="white"/>
  </mask>
  <g mask="url(#mask8_257_801)">
    <path d="M55.5324 22.0895H32.6853V42.8582H55.5324V22.0895Z" fill="white"/>
  </g>
  <path d="M65.3174 36.0333C58.0003 21.472 47.6958 17.3975 35.4729 19.6197C34.7369 20.8546 34.0342 22.106 33.3814 23.3046C45.0481 25.3319 60.9345 32.563 65.3174 36.0333Z" fill="white"/>
  <mask id="mask9_257_801" style="mask-type:luminance" maskUnits="userSpaceOnUse" x="33" y="19" width="33" height="18">
    <path d="M65.3174 36.0333C58.0003 21.472 47.6958 17.3975 35.4729 19.6197C34.7369 20.8546 34.0342 22.106 33.3814 23.3046C45.0481 25.3319 60.9345 32.563 65.3174 36.0333Z" fill="white"/>
  </mask>
  <g mask="url(#mask9_257_801)">
    <path d="M65.3174 17.3975H33.3848V36.0332H65.3174V17.3975Z" fill="white"/>
  </g>
  <path d="M69.9167 27.7621C60.3283 14.4126 49.421 12.0452 37.5978 16.2584C36.7652 17.4933 35.9492 18.8074 35.1765 20.1282C47.0463 20.0093 64.8711 24.9192 69.9167 27.7621Z" fill="white"/>
  <mask id="mask10_257_801" style="mask-type:luminance" maskUnits="userSpaceOnUse" x="35" y="14" width="35" height="14">
    <path d="M69.9167 27.7621C60.3283 14.4126 49.421 12.0452 37.5978 16.2584C36.7652 17.4933 35.9492 18.8074 35.1765 20.1282C47.0463 20.0093 64.8711 24.9192 69.9167 27.7621Z" fill="white"/>
  </mask>
  <g mask="url(#mask10_257_801)">
    <path d="M69.9167 12.0485H35.1732V27.7654H69.9167V12.0485Z" fill="white"/>
  </g>
  <path d="M67.9684 18.3848C58.2734 8.62447 48.9547 8.18203 39.7626 13.3065C38.89 14.3829 38.0141 15.6145 37.1581 16.9221C46.7233 14.8485 63.2458 16.6348 67.9684 18.3848Z" fill="white"/>
  <mask id="mask11_257_801" style="mask-type:luminance" maskUnits="userSpaceOnUse" x="37" y="10" width="31" height="9">
    <path d="M67.9684 18.3848C58.2734 8.62447 48.9547 8.18203 39.7626 13.3065C38.89 14.3829 38.0141 15.6145 37.1581 16.9221C46.7233 14.8485 63.2458 16.6348 67.9684 18.3848Z" fill="white"/>
  </mask>
  <g mask="url(#mask11_257_801)">
    <path d="M67.9684 8.18201H37.1581V18.3848H67.9684V8.18201Z" fill="white"/>
  </g>
  <path d="M30.6904 29.1984C37.0516 18.4937 44.372 4.61931 63.6921 2.70423C43.9923 5.24521e-06 32.4289 14.0494 23.8063 23.9154C17.6416 30.9682 12.9822 35.8781 7.92657 31.0045C9.60181 33.7781 10.4244 38.3578 15.4335 41.8842C22.4308 42.3662 26.3375 36.5219 30.6904 29.1984Z" fill="white"/>
  <mask id="mask12_257_801" style="mask-type:luminance" maskUnits="userSpaceOnUse" x="7" y="2" width="57" height="40">
    <path d="M30.6904 29.1984C37.0516 18.4937 44.372 4.61931 63.6921 2.70423C43.9923 5.24521e-06 32.4289 14.0494 23.8063 23.9154C17.6416 30.9682 12.9822 35.8781 7.92657 31.0045C9.60181 33.7781 10.4244 38.3578 15.4335 41.8842C22.4308 42.3662 26.3375 36.5219 30.6904 29.1984Z" fill="white"/>
  </mask>
  <g mask="url(#mask12_257_801)">
    <path d="M63.6888 0H7.92657V42.3662H63.6888V0Z" fill="white"/>
  </g>
  <path d="M70 10.2721C59.7088 3.03112 50.7165 6.43204 50.7165 6.43204C45.7708 9.00749 41.9973 12.6164 38.8867 16.549C43.2896 11.0447 64.588 9.28485 70 10.2721Z" fill="white"/>
  <mask id="mask13_257_801" style="mask-type:luminance" maskUnits="userSpaceOnUse" x="38" y="5" width="32" height="12">
    <path d="M70 10.2721C59.7088 3.03112 50.7165 6.43204 50.7165 6.43204C45.7708 9.00749 41.9973 12.6164 38.8867 16.549C43.2896 11.0447 64.588 9.28485 70 10.2721Z" fill="white"/>
  </mask>
  <g mask="url(#mask13_257_801)">
    <path d="M69.9966 3.03113H38.8833V16.549H69.9966V3.03113Z" fill="white"/>
  </g>
  <path fill-rule="evenodd" clip-rule="evenodd" d="M27.7929 25.989C16.7557 42.845 10.2912 35.8913 10.2912 35.8913C11.3403 37.9021 12.8157 40.0351 15.4368 41.8808C22.4308 42.3662 26.3374 36.5219 30.6904 29.1984C37.0516 18.4937 44.372 4.61931 63.6921 2.70423C41.2014 2.43677 27.7929 25.989 27.7929 25.989Z" fill="white"/>
</svg>